<svg width="36" height="29" viewBox="0 0 36 29" fill="none" xmlns="http://www.w3.org/2000/svg">
<path d="M10.5 11.9107V17.0893C10.5 17.9473 9.74447 18.6429 8.81248 18.6429H1.6875C0.755508 18.6429 0 17.9473 0 17.0893V11.9107C0 11.0527 0.755508 10.3571 1.6875 10.3571H8.81248C9.74447 10.3571 10.5 11.0527 10.5 11.9107ZM0 22.2679V27.4464C0 28.3045 0.755508 29 1.6875 29H8.81248C9.74447 29 10.5 28.3045 10.5 27.4464V22.2679C10.5 21.4098 9.74447 20.7143 8.81248 20.7143H1.6875C0.755508 20.7143 0 21.4098 0 22.2679ZM8.81248 0H1.6875C0.755508 0 0 0.695547 0 1.55357V6.73214C0 7.59017 0.755508 8.28571 1.6875 8.28571H8.81248C9.74447 8.28571 10.5 7.59017 10.5 6.73214V1.55357C10.5 0.695547 9.74447 0 8.81248 0ZM14.4375 29H34.3125C35.2445 29 36 28.3045 36 27.4464V22.2679C36 21.4098 35.2445 20.7143 34.3125 20.7143H14.4375C13.5055 20.7143 12.75 21.4098 12.75 22.2679V27.4464C12.75 28.3045 13.5055 29 14.4375 29ZM12.75 1.55357V6.73214C12.75 7.59017 13.5055 8.28571 14.4375 8.28571H34.3125C35.2445 8.28571 36 7.59017 36 6.73214V1.55357C36 0.695547 35.2445 0 34.3125 0H14.4375C13.5055 0 12.75 0.695547 12.75 1.55357ZM14.4375 18.6429H34.3125C35.2445 18.6429 36 17.9473 36 17.0893V11.9107C36 11.0527 35.2445 10.3571 34.3125 10.3571H14.4375C13.5055 10.3571 12.75 11.0527 12.75 11.9107V17.0893C12.75 17.9473 13.5055 18.6429 14.4375 18.6429Z" fill="white"/>
</svg>
